<?xml version="1.0" encoding="iso-8859-1"?>
<!-- Generator: Adobe Illustrator 19.0.0, SVG Export Plug-In . SVG Version: 6.00 Build 0)  -->
<svg version="1.1" id="Capa_1" xmlns="http://www.w3.org/2000/svg" xmlns:xlink="http://www.w3.org/1999/xlink" x="0px" y="0px"
	 viewBox="0 0 453.144 453.144" style="enable-background:new 0 0 453.144 453.144;" xml:space="preserve">
<path style="fill:#2AC5E8;" d="M353.495,257.172c2.8,17.2-8.8,34-26.4,36.8l-172.4,28.8c-17.2,2.8-34-8.8-36.8-26.4l-16.8-100.8
	c-2.8-17.2,8.8-34,26.4-36.8l172.4-28.4c17.2-2.8,34,8.8,36.8,26.4L353.495,257.172z"/>
<polygon style="fill:#4AE5FF;" points="103.495,203.172 337.095,161.572 344.695,196.372 108.295,236.772 "/>
<circle style="fill:#FFD66E;" cx="303.095" cy="248.372" r="16"/>
<g>
	<path style="fill:#005F75;" d="M344.295,162.372l-1.2-7.2c-3.2-18.4-19.6-32.4-38-32.4c-2,0-4.4,0-6.4,0.4l-172,28.8
		c-21.2,3.6-35.2,23.6-31.6,44.4l16.8,100.8c3.2,18.4,19.6,32.4,38,32.4c2,0,4.4,0,6.4-0.4l172.4-28.4c21.2-3.6,35.2-23.6,31.6-44.4
		L344.295,162.372L344.295,162.372L344.295,162.372z M110.295,207.972l222-36.8l2.8,16.8l-222,36.8L110.295,207.972z
		 M128.695,165.172l172.4-28.4c1.2-0.4,2.8-0.4,4-0.4c12.4,0,22.8,9.2,24.8,21.2v0.4l-222,36.8v-0.4
		C105.895,180.772,115.095,167.572,128.695,165.172z M325.895,287.572l-172.4,28.4c-14,2.4-26.8-7.6-29.2-20.8l-9.6-57.2l222-36.8
		l10,57.2C349.095,271.972,339.895,285.172,325.895,287.572z"/>
	<path style="fill:#005F75;" d="M179.095,246.372l-43.2,7.2c-3.6,0.8-6,4-5.6,7.6c0.4,3.2,3.2,5.6,6.4,5.6c0.4,0,0.8,0,1.2,0
		l43.2-7.2c3.6-0.8,6-4,5.6-7.6C185.895,247.972,182.695,245.572,179.095,246.372z"/>
	<path style="fill:#005F75;" d="M223.095,238.772l-24.4,4c-3.6,0.8-6,4-5.6,7.6c0.4,3.2,3.2,5.6,6.4,5.6c0.4,0,0.8,0,1.2,0l24.4-4
		c3.6-0.8,6-4,5.6-7.6C230.295,240.772,226.695,238.372,223.095,238.772z"/>
	<path style="fill:#005F75;" d="M299.495,225.972c-12.4,2-20.8,14-18.8,26.4c2,11.2,11.2,19.2,22.4,19.2c1.2,0,2.4,0,3.6-0.4
		c6-1.2,11.2-4.4,14.8-9.2c3.6-4.8,4.8-11.2,4-17.2C323.495,232.372,311.895,223.572,299.495,225.972z M310.695,253.972
		c-1.6,2-3.6,3.6-6,4c-5.2,0.8-10-2.8-10.8-7.6c-0.8-5.2,2.8-10,7.6-10.8c0.4,0,1.2,0,1.6,0c4.8,0,8.4,3.2,9.2,8
		C312.695,249.172,312.295,251.972,310.695,253.972z"/>
	<path style="fill:#005F75;" d="M24.295,262.772c17.2,97.6,102.4,169.6,202.8,169.6c107.2,0,195.6-80.4,205.2-187.2
		c0.4-4-2.4-7.6-6.8-8c-4-0.4-7.6,2.8-8,6.8c-8.8,99.2-90.8,174-190.4,174c-92.8,0-172-66.8-188.4-157.2l17.6,10.8
		c3.6,2,8,0.8,10-2.4c2-3.6,1.2-8-2.4-10l-34.8-21.2c-1.6-1.2-4-1.2-6-0.8c-2,0.4-3.6,2-4.4,4l-18,36.4c-1.6,3.6-0.4,8,3.2,9.6
		c1.2,0.4,2,0.8,3.2,0.8c2.8,0,5.2-1.6,6.4-4L24.295,262.772z"/>
	<path style="fill:#005F75;" d="M449.495,165.172c-3.6-2-8-1.2-10,2.4l-10.8,17.6c-5.2-25.6-15.2-50-29.6-71.6c0,0,0-0.4-0.4-0.4
		c-7.6-11.6-16.4-22.4-26.4-32.4c-14-14-29.6-25.6-46.4-34.8h-0.4c-30-16.4-64.4-25.2-98.8-25.2c-106,0-194,79.6-204.8,184.8
		c-0.4,4,2.4,7.6,6.4,8c0.4,0,0.4,0,0.8,0c3.6,0,6.8-2.8,7.2-6.4c10.4-98.4,92.4-172,190.8-172c32.4,0,64,8,92,23.6h0.4
		c15.6,8.8,30,19.6,42.8,32.4c8.4,8.4,16.4,18,23.2,27.6c0,0,0,0.4,0.4,0.4v0.4c14.4,21.2,24,45.2,29.2,70.4l-18.8-14
		c-3.2-2.4-8-1.6-10.4,1.6c-2.4,3.2-1.6,8,1.6,10.4l32.8,24.4c1.2,0.8,2.8,1.6,4.4,1.6c0.4,0,0.8,0,1.2,0c2-0.4,3.6-1.6,4.8-3.2
		l21.2-34.8C454.295,171.572,453.095,167.172,449.495,165.172z"/>
</g>
<g>
</g>
<g>
</g>
<g>
</g>
<g>
</g>
<g>
</g>
<g>
</g>
<g>
</g>
<g>
</g>
<g>
</g>
<g>
</g>
<g>
</g>
<g>
</g>
<g>
</g>
<g>
</g>
<g>
</g>
</svg>
